<svg xmlns="http://www.w3.org/2000/svg"  viewBox="0 0 50 50" width="50px" height="50px"><path d="M 11.300781 2 C 6.1645496 2 2 6.1645496 2 11.300781 L 2 38.800781 C 2 43.937013 6.1645496 48.099609 11.300781 48.099609 L 38.800781 48.099609 C 43.937013 48.099609 48.099609 43.937013 48.099609 38.800781 L 48.099609 11.289062 L 48.099609 11.277344 C 47.988214 6.1531405 43.848929 2 38.800781 2 L 11.300781 2 z M 11.300781 4 L 38.800781 4 C 42.752633 4 46.011005 7.2464683 46.099609 11.322266 L 46.099609 38.800781 C 46.099609 42.864549 42.864549 46.099609 38.800781 46.099609 L 33 46.099609 L 33 29 L 37.847656 29 L 39.179688 21 L 33 21 L 33 19 C 33 18.45 33.05476 18.405705 33.251953 18.279297 C 33.44915 18.152889 34.029365 18 35 18 L 39 18 L 39 11.271484 L 38.306641 11.048828 C 38.306641 11.048828 35.129885 10 32 10 C 29.096296 10 26.957792 10.953443 25.679688 12.632812 C 24.401582 14.312183 24 16.536525 24 19 L 24 21 L 21 21 L 21 29 L 24 29 L 24 46.099609 L 11.300781 46.099609 C 7.2370133 46.099609 4 42.864549 4 38.800781 L 4 11.300781 C 4 7.2370133 7.2370133 4 11.300781 4 z M 32 12 C 34.168683 12 36.174546 12.537635 37 12.773438 L 37 16 L 35 16 C 33.870635 16 32.949678 16.09711 32.171875 16.595703 C 31.394072 17.094295 31 18.05 31 19 L 31 23 L 36.820312 23 L 36.152344 27 L 31 27 L 31 46.099609 L 26 46.099609 L 26 27 L 23 27 L 23 23 L 26 23 L 26 19 C 26 16.763475 26.399589 14.98938 27.271484 13.84375 C 28.14338 12.69812 29.503704 12 32 12 z"/></svg>