<?xml version="1.0" encoding="UTF-8" standalone="no" ?>
<!DOCTYPE svg PUBLIC "-//W3C//DTD SVG 1.1//EN" "http://www.w3.org/Graphics/SVG/1.1/DTD/svg11.dtd">
<svg xmlns="http://www.w3.org/2000/svg" xmlns:xlink="http://www.w3.org/1999/xlink" version="1.1" width="34.12089" height="40" viewBox="215.1785712417211 200 17.857143230843448 20.933971219207294" xml:space="preserve">
<desc>Created with Fabric.js 5.3.0</desc>
<defs>
</defs>
<g transform="matrix(0.2584239566 0 0 0.2584239566 224.1071428571 210.4669856096)" id="E7DlCx2uvjRDyBLoNul_Y"  >
<g style="" vector-effect="non-scaling-stroke"   >
		<g transform="matrix(1 0 0 1 0 0)" id="qdFeqZYMpQbsEqMtjftpX"  >
<path style="stroke: none; stroke-width: 1; stroke-dasharray: none; stroke-linecap: butt; stroke-dashoffset: 0; stroke-linejoin: miter; stroke-miterlimit: 4; fill: rgb(179,181,179); fill-rule: nonzero; opacity: 1;" vector-effect="non-scaling-stroke"  transform=" translate(-39.9955833199, -39.9968448477)" d="M 74 27.9 C 73.8 24.5 72.1 -3.700000000000003 37 0.3999999999999986 C 24.1 2.2999999999999985 15.399999999999999 11.499999999999998 14.2 24.4 C 14.1 25.4 14 26.7 14 28 C 14 29.1 13.9 29.7 13.7 30.2 C 13.499999999999998 30.7 6.4 44.7 6.4 44.7 C 6.2 45 5.8 45.6 6 46.5 C 6.2 47.4 6.8 48.2 8 48.8 C 8.5 49.099999999999994 9 49.3 9.5 49.5 C 10.5 49.9 11.4 50.3 12 51.2 C 12.8 52.300000000000004 12.8 53.5 12.8 54.900000000000006 C 12.8 55.300000000000004 12.600000000000001 59.7 12.600000000000001 59.7 C 12.400000000000002 62.300000000000004 12.3 65 13.600000000000001 66.9 C 14.900000000000002 68.80000000000001 17.3 69 19.6 69 C 19.900000000000002 69 26.1 69 26.1 69 C 28.8 69 29.5 70.7 29.6 72.3 C 29.6 72.3 29.6 79.39999999999999 29.6 79.3 C 29.6 79.7 29.900000000000002 80 30.3 80 L 61.2 80 C 61.6 80 61.900000000000006 79.7 61.900000000000006 79.3 L 61.900000000000006 59.2 C 61.900000000000006 58.7 62.10000000000001 58.2 62.60000000000001 57.7 C 74.9 45 74.1 31.3 74 27.9 z" stroke-linecap="round" />
</g>
		<g transform="matrix(1 0 0 1 4.2044166801 -11.5968448477)" id="qRFQhyY4JlZPF6rMi7qjy"  >
<path style="stroke: none; stroke-width: 1; stroke-dasharray: none; stroke-linecap: butt; stroke-dashoffset: 0; stroke-linejoin: miter; stroke-miterlimit: 4; fill: rgb(255,255,255); fill-rule: nonzero; opacity: 1;" vector-effect="non-scaling-stroke"  transform=" translate(-44.2, -28.4)" d="M 44.2 9.3 C 33.6 9.3 25.1 17.9 25.1 28.400000000000002 C 25.1 38.900000000000006 33.7 47.5 44.2 47.5 C 54.7 47.5 63.300000000000004 38.9 63.300000000000004 28.4 C 63.3 17.8 54.7 9.3 44.2 9.3 z" stroke-linecap="round" />
</g>
		<g transform="matrix(1 0 0 1 4.1044166801 -11.6968448477)" id="PyhH5P2Wf90XKEZ_1cZeE"  >
<path style="stroke: none; stroke-width: 1; stroke-dasharray: none; stroke-linecap: butt; stroke-dashoffset: 0; stroke-linejoin: miter; stroke-miterlimit: 4; fill: rgb(179,181,179); fill-rule: nonzero; opacity: 1;" vector-effect="non-scaling-stroke"  transform=" translate(-44.1, -28.3)" d="M 57.1 24.9 L 54.1 24.9 L 53.6 23.599999999999998 L 55.6 21.299999999999997 C 55.9 20.999999999999996 55.800000000000004 20.599999999999998 55.5 20.299999999999997 L 51.5 16.699999999999996 C 51.4 16.599999999999994 51.2 16.499999999999996 51 16.499999999999996 C 50.8 16.499999999999996 50.6 16.599999999999998 50.5 16.699999999999996 L 48.7 18.699999999999996 L 47.400000000000006 18.199999999999996 L 47.400000000000006 15.299999999999995 C 47.400000000000006 14.899999999999995 47.10000000000001 14.599999999999996 46.7 14.599999999999996 L 41.400000000000006 14.599999999999996 C 41.00000000000001 14.599999999999996 40.7 14.899999999999997 40.7 15.299999999999995 L 40.7 18.199999999999996 L 39.6 18.599999999999994 L 37.800000000000004 16.599999999999994 C 37.7 16.499999999999993 37.50000000000001 16.399999999999995 37.300000000000004 16.399999999999995 C 37.1 16.399999999999995 36.900000000000006 16.499999999999996 36.800000000000004 16.599999999999994 L 32.800000000000004 20.199999999999996 C 32.50000000000001 20.499999999999996 32.50000000000001 20.899999999999995 32.7 21.199999999999996 L 34.7 23.399999999999995 L 34.1 24.799999999999994 L 31.1 24.799999999999994 C 30.700000000000003 24.799999999999994 30.400000000000002 25.099999999999994 30.400000000000002 25.499999999999993 L 30.400000000000002 30.799999999999994 C 30.400000000000002 31.199999999999992 30.700000000000003 31.499999999999993 31.1 31.499999999999993 L 34 31.499999999999993 L 34.5 32.79999999999999 L 32.2 35.39999999999999 C 32.1 35.49999999999999 32 35.69999999999999 32 35.89999999999999 C 32 36.099999999999994 32.1 36.29999999999999 32.2 36.39999999999999 L 36.2 39.99999999999999 C 36.300000000000004 40.099999999999994 36.5 40.199999999999996 36.7 40.199999999999996 C 36.900000000000006 40.199999999999996 37.1 40.099999999999994 37.2 39.99999999999999 L 39.2 37.79999999999999 L 40.5 38.39999999999999 L 40.5 41.29999999999999 C 40.5 41.69999999999999 40.8 41.99999999999999 41.2 41.99999999999999 L 46.800000000000004 41.99999999999999 C 47.2 41.99999999999999 47.50000000000001 41.699999999999996 47.50000000000001 41.29999999999999 L 47.50000000000001 38.39999999999999 L 49.10000000000001 37.69999999999999 L 50.80000000000001 39.69999999999999 C 50.90000000000001 39.79999999999999 51.10000000000001 39.89999999999999 51.30000000000001 39.89999999999999 C 51.500000000000014 39.89999999999999 51.70000000000001 39.79999999999999 51.80000000000001 39.69999999999999 L 55.80000000000001 36.09999999999999 C 55.90000000000001 35.999999999999986 56.000000000000014 35.79999999999999 56.000000000000014 35.59999999999999 C 56.000000000000014 35.399999999999984 55.90000000000001 35.19999999999999 55.80000000000001 35.09999999999999 L 53.70000000000001 32.69999999999999 L 54.20000000000001 31.599999999999987 L 57.10000000000001 31.599999999999987 C 57.50000000000001 31.599999999999987 57.80000000000001 31.299999999999986 57.80000000000001 30.899999999999988 L 57.80000000000001 25.499999999999986 C 57.8 25.7 57.8 24.9 57.1 24.9 z" stroke-linecap="round" />
</g>
		<g transform="matrix(1 0 0 1 4.2044166801 -11.5968448477)" id="TNmWOqU3CXV6j2vfrHrsH"  >
<path style="stroke: none; stroke-width: 1; stroke-dasharray: none; stroke-linecap: butt; stroke-dashoffset: 0; stroke-linejoin: miter; stroke-miterlimit: 4; fill: rgb(255,255,255); fill-rule: nonzero; opacity: 1;" vector-effect="non-scaling-stroke"  transform=" translate(-44.2, -28.4)" d="M 47.9 28.4 C 47.9 30.4 46.199999999999996 32.1 44.199999999999996 32.1 C 42.199999999999996 32.1 40.49999999999999 30.5 40.49999999999999 28.400000000000002 C 40.49999999999999 26.400000000000002 42.099999999999994 24.700000000000003 44.199999999999996 24.700000000000003 C 46.2 24.7 47.9 26.3 47.9 28.4 z" stroke-linecap="round" />
</g>
</g>
</g>
</svg>