<?xml version="1.0" standalone="no"?>
<!DOCTYPE svg PUBLIC "-//W3C//DTD SVG 20010904//EN"
 "http://www.w3.org/TR/2001/REC-SVG-20010904/DTD/svg10.dtd">
<svg version="1.0" xmlns="http://www.w3.org/2000/svg"
 width="920.000000pt" height="250.000000pt" viewBox="0 0 920.000000 250.000000"
 preserveAspectRatio="xMidYMid meet">

<g transform="translate(0.000000,250.000000) scale(0.100000,-0.100000)"
fill="#000000" stroke="none">
<path d="M6000 1961 c0 -6 5 -13 10 -16 6 -4 10 -88 10 -220 0 -132 -4 -216
-10 -220 -5 -3 -10 -10 -10 -16 0 -12 87 -12 95 1 3 6 1 10 -5 10 -16 0 -9
322 7 327 10 4 13 -37 15 -169 l3 -173 35 -3 35 -3 -3 133 c-3 179 -8 215 -34
229 -11 6 -31 9 -44 6 -23 -4 -24 -2 -24 59 l0 64 -40 0 c-22 0 -40 -4 -40 -9z"/>
<path d="M2161 1945 c-19 -9 -57 -37 -85 -63 -53 -49 -63 -55 -181 -92 -82
-26 -157 -71 -186 -111 -21 -30 -70 -49 -126 -49 -51 0 -130 -35 -194 -85 -76
-60 -106 -71 -211 -79 -105 -7 -147 -23 -252 -94 -98 -65 -123 -79 -195 -103
-31 -10 -90 -37 -131 -61 -62 -36 -83 -43 -141 -46 -58 -4 -70 -1 -88 17 -24
24 -26 40 -8 65 10 13 40 22 106 32 122 18 169 52 155 111 -5 20 -27 34 -103
70 -53 25 -117 63 -142 84 -26 22 -50 39 -53 39 -10 0 -7 -39 5 -80 19 -63 50
-92 120 -115 56 -18 64 -23 64 -45 0 -23 -4 -25 -60 -31 -95 -11 -123 -25
-136 -70 -16 -53 -2 -81 56 -109 59 -29 92 -24 204 31 140 68 203 62 216 -18
3 -21 15 -78 26 -128 26 -122 25 -149 -7 -174 -28 -22 -113 -51 -149 -51 -28
0 -48 -24 -71 -85 -14 -39 -42 -73 -125 -155 -123 -121 -139 -153 -76 -158 30
-3 43 2 66 25 75 74 80 77 145 84 63 6 69 9 179 89 15 11 58 17 151 21 123 5
135 7 196 38 68 35 120 82 120 109 0 13 -4 11 -15 -6 -19 -26 -90 -69 -137
-83 -35 -10 -62 -14 -173 -23 -126 -11 -144 -17 -188 -53 -50 -43 -100 -65
-122 -56 -49 18 43 140 123 163 20 6 89 15 153 19 140 10 184 28 257 105 50
53 72 102 87 196 12 73 25 100 50 100 25 0 35 -22 35 -77 0 -53 22 -132 42
-150 16 -14 48 -17 243 -18 123 -1 243 1 266 4 41 6 44 8 56 51 22 74 33 79
100 46 67 -33 225 -86 333 -111 99 -24 120 -45 120 -120 0 -48 -4 -61 -28 -84
-18 -19 -43 -30 -72 -35 -43 -6 -60 -3 -185 35 -36 10 -44 9 -77 -11 -21 -12
-38 -26 -38 -30 0 -5 12 -18 26 -29 20 -16 39 -20 87 -19 47 1 72 -4 102 -20
22 -12 49 -22 61 -22 28 0 119 75 164 136 36 48 49 61 113 114 32 28 37 38 37
75 0 65 -17 99 -71 145 -27 22 -49 48 -49 56 0 8 -4 14 -9 14 -22 0 42 100 97
153 49 46 67 57 94 57 42 0 97 -53 128 -122 19 -43 24 -48 54 -48 24 0 40 -8
63 -35 36 -40 65 -45 87 -13 20 29 22 62 2 36 -12 -16 -15 -15 -39 10 -32 34
-35 67 -6 84 11 7 32 35 45 61 24 47 24 48 4 37 -30 -16 -60 12 -60 55 0 35
15 55 41 55 22 0 49 -37 42 -56 -6 -17 11 -18 25 -1 19 23 25 67 12 97 -9 22
-27 37 -61 52 -56 23 -66 52 -23 68 21 8 36 4 85 -22 32 -18 62 -41 65 -51 9
-27 -28 -147 -48 -158 -18 -10 -69 -155 -67 -192 1 -12 7 1 14 28 17 70 38
115 68 151 15 18 32 56 39 90 14 62 15 63 105 100 23 9 49 24 57 33 13 15 8
16 -63 13 -43 -2 -104 1 -135 8 -56 11 -57 12 -40 31 9 10 27 19 38 19 43 0
176 24 176 32 0 10 -109 9 -175 -1 -56 -10 -156 1 -226 24 -25 9 -69 36 -98
60 -34 29 -71 50 -104 59 -63 18 -229 54 -278 61 -33 5 -61 22 -141 86 -34 28
-111 35 -157 14z m339 -145 c41 -11 96 -22 121 -24 49 -4 141 -40 159 -61 8
-10 6 -15 -10 -20 -12 -4 -26 -2 -33 3 -7 5 -54 12 -105 16 l-94 6 45 -44 c25
-24 52 -58 61 -75 15 -29 15 -33 -4 -71 -11 -21 -47 -71 -79 -110 -52 -62 -61
-79 -76 -148 -21 -95 -39 -132 -65 -132 -24 0 -50 47 -50 92 0 45 78 168 174
274 25 29 46 58 46 67 0 20 -41 62 -81 82 -45 23 -116 81 -129 105 -6 11 -8
31 -4 46 7 29 1 29 124 -6z m-226 -34 c-35 -31 -55 -61 -71 -103 -33 -85 -30
-146 11 -248 l34 -84 -41 -21 c-23 -11 -82 -50 -132 -86 -107 -77 -153 -102
-220 -120 -71 -19 -188 -16 -270 7 -38 10 -111 26 -162 33 -113 18 -130 23
-137 41 -3 9 3 56 13 106 21 104 36 124 123 172 32 17 58 35 58 39 0 11 51 57
81 73 14 8 57 20 95 26 38 7 139 42 224 77 130 53 379 130 429 132 7 0 -9 -20
-35 -44z m65 -91 c36 -31 54 -82 45 -129 -7 -39 -17 -44 -40 -22 -7 8 -17 16
-21 18 -22 9 -83 91 -83 111 0 51 50 62 99 22z m606 -65 c9 -8 15 -25 13 -39
-3 -24 -7 -26 -56 -29 -45 -3 -58 -8 -83 -35 l-29 -32 -20 24 c-12 14 -20 38
-20 60 0 40 7 55 30 64 25 11 149 1 165 -13z m-1692 -189 c23 -9 24 -14 20
-58 -8 -83 -52 -235 -81 -278 -16 -25 -38 -86 -56 -157 l-29 -115 -67 -37
c-60 -32 -75 -36 -141 -36 -47 0 -101 -8 -147 -22 -65 -19 -79 -28 -125 -78
-59 -64 -87 -80 -87 -50 0 12 13 28 28 38 16 9 52 43 81 74 56 61 112 93 205
118 l60 15 16 78 17 78 -41 21 c-51 26 -56 33 -56 88 1 68 16 123 52 180 39
63 104 100 243 135 63 17 78 17 108 6z m1237 -311 c0 -5 -15 -16 -32 -24 -24
-10 -27 -15 -14 -15 27 -1 153 -87 173 -118 22 -33 25 -115 6 -143 -14 -20
-16 -20 -33 -5 -10 9 -25 35 -34 59 -10 26 -26 47 -41 54 -41 19 -102 81 -108
110 -7 34 6 58 41 76 32 18 42 19 42 6z m-1084 -86 c66 -57 101 -65 249 -57
95 5 117 10 164 34 52 28 81 35 94 23 13 -13 -9 -38 -73 -80 l-67 -44 -177 7
c-102 3 -183 11 -191 17 -13 11 -67 146 -58 146 3 0 29 -21 59 -46z"/>
<path d="M3431 1946 c-19 -23 -10 -60 17 -64 l22 -3 0 -664 0 -664 -22 -3
c-16 -2 -24 -11 -26 -29 -6 -47 12 -51 205 -47 206 4 243 16 313 95 56 63 63
107 58 358 -3 231 -4 232 -69 301 l-39 40 30 22 c16 12 40 41 52 65 21 38 23
59 26 213 4 202 -3 238 -61 301 -71 78 -103 87 -313 91 -153 3 -182 2 -193
-12z m338 -92 c20 -25 21 -39 21 -264 0 -225 -1 -239 -21 -264 -15 -19 -30
-26 -55 -26 l-34 0 0 290 0 290 34 0 c25 0 40 -7 55 -26z m-3 -648 c18 -14 19
-31 22 -310 l3 -296 -25 -25 c-16 -16 -36 -25 -56 -25 l-30 0 0 335 0 335 33
0 c18 0 42 -6 53 -14z"/>
<path d="M4110 1945 c-17 -20 -9 -48 18 -60 l22 -10 0 -660 0 -660 -22 -10
c-27 -12 -35 -40 -18 -60 10 -12 57 -15 269 -15 187 0 260 3 269 12 17 17 17
439 0 456 -16 16 -170 16 -186 0 -8 -8 -12 -67 -12 -201 l0 -188 -42 3 -43 3
-3 332 -2 332 91 3 c75 2 94 6 103 21 8 12 8 22 0 35 -9 14 -28 18 -103 20
l-91 3 0 289 0 290 45 0 45 0 0 -188 c0 -133 4 -192 12 -200 16 -16 170 -16
186 0 17 17 17 439 0 456 -9 9 -82 12 -269 12 -212 0 -259 -3 -269 -15z"/>
<path d="M4926 1933 c-3 -15 -36 -331 -73 -701 l-68 -673 -25 -12 c-28 -14
-37 -41 -20 -62 17 -21 163 -21 180 -1 18 23 8 61 -18 64 -19 3 -21 8 -17 40
3 20 9 89 15 152 6 63 13 132 16 153 l6 38 51 -3 52 -3 12 -140 c6 -77 14
-159 16 -183 4 -39 2 -44 -19 -52 -26 -10 -33 -47 -12 -68 19 -19 272 -17 288
2 18 23 8 61 -17 64 -16 2 -24 12 -27 35 -3 18 -28 277 -56 577 -28 300 -56
601 -63 670 l-12 125 -102 3 -101 3 -6 -28z m68 -653 c9 -107 19 -212 22 -232
l6 -38 -46 0 c-45 0 -46 1 -46 33 0 17 9 118 20 222 11 105 20 196 20 204 0 8
2 12 4 10 2 -2 11 -92 20 -199z"/>
<path d="M5284 1947 c-2 -7 -3 -111 -2 -232 l3 -220 83 -3 c53 -2 89 1 98 9
11 9 14 50 14 195 0 157 2 184 15 184 13 0 15 -80 15 -659 l0 -660 -22 -3
c-19 -2 -23 -9 -23 -38 l0 -35 139 -3 c147 -3 170 3 164 42 -2 12 -13 25 -25
31 l-23 10 0 663 c0 527 3 663 13 660 9 -4 13 -56 17 -199 l5 -194 84 -3 c61
-2 87 1 92 10 10 15 12 418 3 442 -5 14 -43 16 -325 16 -250 0 -321 -3 -325
-13z"/>
<path d="M6265 1838 c-41 -22 -45 -37 -45 -173 0 -146 8 -169 61 -180 61 -14
116 35 107 97 -2 18 -9 23 -33 23 -29 0 -30 -2 -35 -49 -3 -27 -11 -51 -17
-54 -10 -3 -13 16 -13 75 l0 78 47 0 48 0 3 59 c4 70 -10 109 -44 125 -31 14
-53 14 -79 -1z m53 -90 c3 -69 1 -76 -15 -74 -10 2 -17 6 -15 9 1 4 2 39 2 78
0 52 3 70 13 67 8 -3 13 -31 15 -80z"/>
<path d="M6205 1410 c-45 -3 -62 -7 -47 -12 l22 -6 0 -456 c0 -449 0 -456 -20
-456 -11 0 -20 -4 -20 -10 0 -5 23 -10 50 -10 28 0 50 5 50 10 0 6 -9 10 -20
10 -20 0 -20 6 -19 323 0 189 4 314 9 302 5 -11 25 -146 45 -300 49 -381 40
-345 86 -345 32 0 39 4 43 23 3 12 20 158 38 325 18 166 37 302 42 302 5 0 6
-27 2 -61 -3 -34 -6 -176 -6 -315 0 -219 -2 -254 -15 -254 -8 0 -15 -4 -15
-10 0 -6 35 -10 85 -10 50 0 85 4 85 10 0 6 -7 10 -15 10 -13 0 -15 58 -15
460 0 402 2 460 15 460 8 0 15 3 15 8 0 4 -31 6 -70 4 -45 -2 -70 -8 -70 -15
0 -7 -16 -153 -35 -325 -19 -173 -35 -329 -35 -347 0 -19 -4 -36 -8 -39 -5 -3
-28 149 -51 337 -23 188 -46 353 -49 367 -7 24 -9 25 -77 20z"/>
<path d="M7378 1403 l22 -4 0 -460 c0 -452 0 -459 -20 -459 -11 0 -20 -4 -20
-10 0 -6 35 -10 85 -10 50 0 85 4 85 10 0 6 -7 10 -15 10 -13 0 -15 23 -15
144 0 79 -3 151 -6 160 -3 9 -2 16 4 16 5 0 13 -12 16 -27 4 -16 23 -92 43
-170 l36 -143 63 0 c60 0 97 15 53 22 -19 3 -28 28 -82 226 l-59 224 51 111
c34 75 56 112 66 111 8 -1 15 2 15 7 0 5 -24 9 -52 8 -41 0 -48 -2 -31 -9 22
-9 21 -11 -39 -142 -33 -73 -65 -137 -69 -142 -5 -6 -9 111 -9 262 l0 272 -72
-1 c-40 -1 -63 -4 -50 -6z"/>
<path d="M8203 1390 l-43 -19 0 -101 c0 -93 -1 -100 -20 -100 -11 0 -20 -4
-20 -9 0 -5 8 -8 18 -7 16 1 17 -21 22 -306 l5 -307 29 -30 c39 -40 146 -70
146 -41 0 6 -13 10 -28 10 -15 0 -33 5 -40 12 -9 9 -12 98 -12 340 l0 328 35
-5 c19 -2 35 0 35 5 0 6 -16 10 -35 10 l-35 0 0 120 c0 66 -3 120 -7 120 -5 0
-27 -9 -50 -20z"/>
<path d="M6734 1161 c-51 -23 -74 -68 -74 -145 l0 -56 50 0 50 0 0 81 c0 92
10 119 45 119 37 0 45 -28 45 -163 l0 -124 -54 -6 c-67 -7 -108 -28 -124 -62
-7 -16 -12 -77 -12 -156 l0 -131 29 -29 c23 -23 38 -29 71 -29 23 0 51 5 63
11 16 9 22 9 25 0 5 -14 132 -15 132 -1 0 6 -7 10 -14 10 -13 0 -15 47 -18
308 -3 346 -3 346 -79 376 -51 21 -84 20 -135 -3z m116 -486 l0 -175 -26 -12
c-18 -9 -30 -9 -42 -1 -15 9 -17 33 -20 171 -3 177 2 192 59 192 l29 0 0 -175z"/>
<path d="M7187 1174 c-4 -4 -46 -7 -92 -5 -53 1 -85 -2 -85 -8 0 -6 7 -8 15
-5 13 5 15 -36 15 -335 0 -296 -2 -341 -15 -341 -8 0 -15 -4 -15 -10 0 -6 35
-10 85 -10 50 0 85 4 85 10 0 6 -9 10 -20 10 -20 0 -20 7 -20 324 0 349 0 352
52 344 22 -3 23 -8 26 -95 l3 -93 54 0 55 0 0 48 c-1 66 -15 122 -38 144 -20
20 -92 35 -105 22z"/>
<path d="M7875 1173 c-38 -9 -84 -53 -95 -91 -7 -24 -10 -126 -8 -289 l3 -251
25 -27 c36 -39 73 -55 125 -55 53 0 95 19 124 56 17 21 21 41 21 95 l0 69 -50
0 -50 0 0 -88 c0 -55 -4 -92 -12 -100 -19 -19 -66 -15 -78 7 -5 11 -10 84 -10
165 l0 146 100 0 100 0 0 136 c0 157 -9 182 -75 214 -40 19 -77 23 -120 13z
m83 -25 c8 -8 12 -59 12 -165 l0 -153 -50 0 -50 0 0 149 c0 123 3 152 16 165
18 19 55 21 72 4z"/>
</g>
</svg>
