<?xml version="1.0" encoding="UTF-8" standalone="no" ?>
<!DOCTYPE svg PUBLIC "-//W3C//DTD SVG 1.1//EN" "http://www.w3.org/Graphics/SVG/1.1/DTD/svg11.dtd">
<svg xmlns="http://www.w3.org/2000/svg" xmlns:xlink="http://www.w3.org/1999/xlink" version="1.1" width="59.66851" height="40" viewBox="84.82142385655871 120.00000000000006 328.5199650838413 220.2300443458979" xml:space="preserve">
<desc>Created with Fabric.js 5.3.0</desc>
<defs>
</defs>
<g transform="matrix(4.0558019217 0 0 4.0558019217 249.0814063985 230.1150221729)" id="iLuz2CE7Lt3bduFDQz_sV"  >
<g style="" vector-effect="non-scaling-stroke"   >
		<g transform="matrix(1 0 0 1 0 3.45)" id="WK6HY1g-Sjd89DMTOJ3RB"  >
<path style="stroke: none; stroke-width: 1; stroke-dasharray: none; stroke-linecap: butt; stroke-dashoffset: 0; stroke-linejoin: miter; stroke-miterlimit: 4; fill: rgb(179,181,179); fill-rule: nonzero; opacity: 1;" vector-effect="non-scaling-stroke"  transform=" translate(-40, -43.5)" d="M 24.3 34.9 C 24.400000000000002 33.8 25 26.099999999999998 17.1 26.099999999999998 C 8.700000000000001 26.099999999999998 9.900000000000002 35 9.900000000000002 35 C 9.4 35 9 35.4 9 36.8 C 9.1 38.5 10.3 39.5 10.7 39.8 C 10.899999999999999 40.199999999999996 11.399999999999999 41.4 12.299999999999999 42.699999999999996 L 12.299999999999999 45.9 C 12.1 46.1 9.299999999999999 48.6 9.299999999999999 48.6 L 3.1999999999999993 51.5 C 1.9999999999999993 52 1.1999999999999993 53.1 0.8999999999999995 54.4 L 0 61 C 0 61 12.4 61 12.4 60.9 L 13 57.8 C 13.5 55.4 15.1 53.3 17.3 52.3 L 25.200000000000003 48.699999999999996 C 25.200000000000003 48.699999999999996 22.000000000000004 45.9 22.000000000000004 45.9 L 22.000000000000004 42.699999999999996 C 22.900000000000002 41.4 23.400000000000002 40.099999999999994 23.600000000000005 39.699999999999996 C 24.000000000000004 39.4 25.200000000000006 38.49999999999999 25.300000000000004 36.699999999999996 C 25.3 35.2 24.8 34.9 24.3 34.9 z M 54.7 36.8 C 54.800000000000004 38.5 56 39.5 56.400000000000006 39.8 C 56.60000000000001 40.199999999999996 57.10000000000001 41.4 58.00000000000001 42.8 L 58.00000000000001 46 C 58.00000000000001 46 54.800000000000004 48.8 54.800000000000004 48.8 L 62.7 52.4 C 65 53.4 66.60000000000001 55.5 67 57.9 L 67.6 61 C 67.6 61 80 61 80 61 L 79 54.3 C 78.7 53 77.9 52 76.7 51.4 L 70.60000000000001 48.5 C 70.60000000000001 48.5 67.80000000000001 46 67.60000000000001 45.8 L 67.60000000000001 42.599999999999994 C 68.50000000000001 41.3 69.00000000000001 40.099999999999994 69.2 39.699999999999996 C 69.60000000000001 39.4 70.8 38.4 70.9 36.699999999999996 C 71 35.3 70.5 34.99999999999999 70.10000000000001 34.9 C 70.10000000000001 34.9 71.30000000000001 26 62.900000000000006 26 C 55.00000000000001 26 55.60000000000001 33.7 55.7 34.8 C 55.2 34.9 54.7 35.2 54.7 36.8 z" stroke-linecap="round" />
</g>
		<g transform="matrix(1 0 0 1 -0.05 0)" id="wV3yiUX6r66On9G6E2VP5"  >
<path style="stroke: none; stroke-width: 1; stroke-dasharray: none; stroke-linecap: butt; stroke-dashoffset: 0; stroke-linejoin: miter; stroke-miterlimit: 4; fill: rgb(179,181,179); fill-rule: nonzero; opacity: 1;" vector-effect="non-scaling-stroke"  transform=" translate(-39.95, -40.05)" d="M 62.2 53.6 L 52.2 49 C 52.2 49 47.400000000000006 44.6 47.400000000000006 44.6 L 47.300000000000004 39.5 C 48.7 37.4 49.6 35.5 49.800000000000004 34.9 C 50.400000000000006 34.5 52.400000000000006 32.9 52.50000000000001 30.299999999999997 C 52.60000000000001 27.9 51.800000000000004 27.299999999999997 51.10000000000001 27.299999999999997 C 51.30000000000001 25.599999999999998 52.10000000000001 13.399999999999997 39.70000000000001 13.399999999999997 C 26.30000000000001 13.399999999999997 28.20000000000001 27.499999999999996 28.20000000000001 27.499999999999996 L 28.20000000000001 27.499999999999996 C 27.50000000000001 27.599999999999998 26.80000000000001 28.099999999999998 26.90000000000001 30.299999999999997 C 27.00000000000001 33 29.00000000000001 34.5 29.60000000000001 34.9 C 29.90000000000001 35.5 30.70000000000001 37.5 32.10000000000001 39.5 L 32.10000000000001 44.6 C 32.10000000000001 44.6 27.40000000000001 49 27.40000000000001 49 L 17.80000000000001 53.6 C 15.900000000000011 54.5 14.600000000000012 56.1 14.200000000000012 58.1 L 12.500000000000012 66.7 L 67.4 66.7 L 65.7 58.1 C 65.4 56.1 64 54.4 62.2 53.6 z" stroke-linecap="round" />
</g>
</g>
</g>
</svg>