<?xml version="1.0" encoding="UTF-8" standalone="no" ?>
<!DOCTYPE svg PUBLIC "-//W3C//DTD SVG 1.1//EN" "http://www.w3.org/Graphics/SVG/1.1/DTD/svg11.dtd">
<svg xmlns="http://www.w3.org/2000/svg" xmlns:xlink="http://www.w3.org/1999/xlink" version="1.1" width="23.65527" height="40" viewBox="200.00000164646673 126.60712918230729 71.07142690599477 120.17859344830099" xml:space="preserve">
<desc>Created with Fabric.js 5.3.0</desc>
<defs>
</defs>
<g transform="matrix(1 0 0 1 233.3928598565 140)" id="ovn8jlYZ7stBYSUj5dqa6"  >
<path style="stroke: rgb(59,113,68); stroke-width: 0; stroke-dasharray: none; stroke-linecap: butt; stroke-dashoffset: 0; stroke-linejoin: miter; stroke-miterlimit: 4; fill: rgb(133,123,128); fill-rule: nonzero; opacity: 1;" vector-effect="non-scaling-stroke"  transform=" translate(-13.3928598565, -13.3928598565)" d="M 13.39285 0 C 20.785709999999998 0 26.7857 6 26.7857 13.39285 C 26.7857 20.785709999999998 20.7857 26.7857 13.39285 26.7857 C 5.9999899999999995 26.7857 0 20.7857 0 13.39285 C 0 5.9999899999999995 6 0 13.39285 0 z" stroke-linecap="round" />
</g>
<g transform="matrix(0.3836407241 -0.0133970293 0.0144960044 0.4151112523 248.8937185903 160)" id="JZFUV9-DGDdP_BuAAhmx_"  >
<g style="" vector-effect="non-scaling-stroke"   >
		<g transform="matrix(1 0 0 1 -0.0361205805 -0.0343700627)" id="Rgn0Cait6TrXq78m0Tj7r"  >
<path style="stroke: none; stroke-width: 1; stroke-dasharray: none; stroke-linecap: butt; stroke-dashoffset: 0; stroke-linejoin: miter; stroke-miterlimit: 4; fill: rgb(179,181,179); fill-rule: nonzero; opacity: 1;" vector-effect="non-scaling-stroke"  transform=" translate(-39.9638794195, -39.9656299373)" d="M 71 61.1 C 72.8 58.800000000000004 72.8 55.4 70.9 53 C 70.9 53 50.7 27.3 50.60000000000001 27.3 C 51.00000000000001 25.7 51.20000000000001 24 51.20000000000001 22.3 C 51.2 10 41.2 0 28.9 0 C 16.6 0 6.6 10 6.6 22.3 C 6.6 34.6 16.6 44.6 28.9 44.6 C 30.599999999999998 44.6 32.199999999999996 44.4 33.8 44 C 33.8 44 57.9 65.2 57.9 65.2 C 59.199999999999996 66.3 60.699999999999996 66.9 62.3 66.9 C 63.9 66.9 65.39999999999999 66.30000000000001 66.6 65.2 L 67.5 64.3 C 68.7 66.1 70.1 68.6 69.9 70.7 C 69.80000000000001 71.8 69.30000000000001 72.8 68.30000000000001 73.60000000000001 C 64.70000000000002 76.50000000000001 59.80000000000001 73.7 55.000000000000014 70.50000000000001 C 54.20000000000002 70.00000000000001 53.40000000000001 69.40000000000002 52.600000000000016 68.90000000000002 C 48.000000000000014 65.60000000000002 43.20000000000002 62.30000000000002 36.80000000000001 63.20000000000002 C 32.80000000000001 63.80000000000002 29.600000000000012 66.60000000000002 28.900000000000013 70.20000000000002 C 28.200000000000014 73.90000000000002 30.000000000000014 77.40000000000002 33.80000000000001 79.70000000000002 C 34.90000000000001 80.30000000000001 35.90000000000001 79.60000000000002 36.20000000000001 79.10000000000002 C 36.70000000000001 78.30000000000003 36.40000000000001 77.20000000000002 35.60000000000001 76.70000000000002 C 33.10000000000001 75.20000000000002 31.90000000000001 73.10000000000002 32.30000000000001 70.90000000000002 C 32.70000000000001 68.70000000000002 34.70000000000001 67.00000000000001 37.30000000000001 66.70000000000002 C 42.40000000000001 66.00000000000001 46.40000000000001 68.80000000000001 50.70000000000001 71.80000000000001 C 51.50000000000001 72.4 52.30000000000001 72.9 53.10000000000001 73.50000000000001 C 57.10000000000001 76.20000000000002 64.7 81.20000000000002 70.5 76.40000000000002 C 72.2 75.00000000000001 73.2 73.20000000000002 73.3 71.10000000000002 C 73.6 67.60000000000002 71.39999999999999 64.00000000000003 70 62.00000000000002 C 70.1 62 70.8 61.3 71 61.1 z" stroke-linecap="round" />
</g>
		<g transform="matrix(1 0 0 1 -0.5125 -6.4356373162)" id="j70IXV6j8_LljakJPNqCx"  >
<path style="stroke: none; stroke-width: 1; stroke-dasharray: none; stroke-linecap: butt; stroke-dashoffset: 0; stroke-linejoin: miter; stroke-miterlimit: 4; fill: rgb(255,255,255); fill-rule: nonzero; opacity: 1;" vector-effect="non-scaling-stroke"  transform=" translate(-39.4875, -33.5643626838)" d="M 28.9 39.8 C 19.299999999999997 39.8 11.5 31.999999999999996 11.5 22.4 C 11.5 12.799999999999999 19.3 5 28.9 5 C 38.5 5 46.3 12.8 46.3 22.4 C 46.3 31.9 38.5 39.8 28.9 39.8 z M 48.7 32.7 C 46.6 36.800000000000004 43.2 40.1 39.1 42.2 L 56.400000000000006 57.5 L 63.00000000000001 50.9 L 48.7 32.7 z M 67.1 56.1 C 67.6 56.7 67.6 57.800000000000004 67.1 58.300000000000004 L 63.3 61.800000000000004 C 62.8 62.300000000000004 61.8 62.2 61.199999999999996 61.7 L 59 59.8 L 65.2 53.599999999999994 L 67.1 56.1 z" stroke-linecap="round" />
</g>
		<g transform="matrix(1 0 0 1 9.05 2.9)" id="hB8f4JL7uvlBk1Dm3Zu6k"  >
<path style="stroke: none; stroke-width: 1; stroke-dasharray: none; stroke-linecap: butt; stroke-dashoffset: 0; stroke-linejoin: miter; stroke-miterlimit: 4; fill: rgb(179,181,179); fill-rule: nonzero; opacity: 1;" vector-effect="non-scaling-stroke"  transform=" translate(-49.05, -42.9)" d="M 48 39 L 52.9 44 L 50.1 46.8 L 45.2 41.8 L 48 39 z" stroke-linecap="round" />
</g>
</g>
</g>
<g transform="matrix(0.3695501637 0 0 0.2327850862 235.2820065494 166.132832021)" id="Y6bUzMxSSc9sMy1zj9I4i"  >
<path style="stroke: none; stroke-width: 1; stroke-dasharray: none; stroke-linecap: butt; stroke-dashoffset: 0; stroke-linejoin: miter; stroke-miterlimit: 4; fill: rgb(179,181,179); fill-rule: nonzero; opacity: 1;" vector-effect="non-scaling-stroke"  transform=" translate(-40, -40)" d="M 60 40 L 80 80 L 40 80 L 0 80 L 20 40 L 40 0 L 60 40 z" stroke-linecap="round" />
</g>
<g transform="matrix(1.0473683658 0 0 1.0473683658 235.5357150995 211.2499982164)" id="wiuR6W13wcrSnNl1rVyNL"  >
<path style="stroke: rgb(58,66,0); stroke-width: 0; stroke-dasharray: none; stroke-linecap: butt; stroke-dashoffset: 0; stroke-linejoin: miter; stroke-miterlimit: 4; fill: rgb(133,123,128); fill-rule: nonzero; opacity: 1;" vector-effect="non-scaling-stroke"  transform=" translate(0, 0)" d="M -33.92857 -19.5339 C -33.92857 -27.48386 -27.48386 -33.92857 -19.533900000000003 -33.92857 L 19.533899999999996 -33.92857 L 19.533899999999996 -33.92857 C 27.483859999999996 -33.92857 33.92856999999999 -27.48386 33.92856999999999 -19.533900000000003 L 33.92856999999999 19.533899999999996 L 33.92856999999999 19.533899999999996 C 33.92856999999999 27.483859999999996 27.483859999999993 33.92856999999999 19.533899999999996 33.92856999999999 L -19.533900000000003 33.92856999999999 L -19.533900000000003 33.92856999999999 C -27.483860000000004 33.92856999999999 -33.92857 27.483859999999993 -33.92857 19.533899999999996 z" stroke-linecap="round" />
</g>
</svg>