<?xml version="1.0" encoding="UTF-8" standalone="no" ?>
<!DOCTYPE svg PUBLIC "-//W3C//DTD SVG 1.1//EN" "http://www.w3.org/Graphics/SVG/1.1/DTD/svg11.dtd">
<svg xmlns="http://www.w3.org/2000/svg" xmlns:xlink="http://www.w3.org/1999/xlink" version="1.1" width="40" height="40" viewBox="191.5249999999999 167.69285714285712 72.30714285714286 72.30714285714286" xml:space="preserve">
<desc>Created with Fabric.js 5.3.0</desc>
<defs>
</defs>
<g transform="matrix(0.8928571429 0 0 0.8928571429 227.6785714286 203.8464285714)" id="yBf565JciKxqYg8ieU2vI"  >
<g style="" vector-effect="non-scaling-stroke"   >
		<g transform="matrix(1 0 0 1 0.0051102134 -0.0176686246)" id="KKEpBK-nJ8j6J-qUo2LuN"  >
<path style="stroke: none; stroke-width: 1; stroke-dasharray: none; stroke-linecap: butt; stroke-dashoffset: 0; stroke-linejoin: miter; stroke-miterlimit: 4; fill: rgb(179,181,179); fill-rule: nonzero; opacity: 1;" vector-effect="non-scaling-stroke"  transform=" translate(-40.0051102134, -39.9823313754)" d="M 34.4 62.8 C 33.5 63.699999999999996 32 63.8 31.2 62.9 L 30.2 61.9 C 30.2 62 29.5 62.9 29.099999999999998 63.199999999999996 L 14.8 77.5 C 12.8 79.5 9.700000000000001 79.6 7.9 77.7 L 2.3000000000000007 72.10000000000001 C 0.5000000000000007 70.30000000000001 0.6000000000000008 67.2 2.500000000000001 65.2 L 16.7 51 C 17.099999999999998 50.6 18 50 18 49.9 L 17 48.9 C 16.1 48 16.2 46.6 17.1 45.699999999999996 C 18.000000000000004 44.79999999999999 19.5 44.8 20.3 45.599999999999994 L 25.700000000000003 50.99999999999999 L 61 15.4 L 62.9 9.9 L 76 0.9000000000000004 L 79 3.9000000000000004 L 70 17 L 64.6 19 L 29 54.2 L 34.4 59.6 C 35.3 60.5 35.3 61.9 34.4 62.8 z" stroke-linecap="round" />
</g>
		<g transform="matrix(1 0 0 1 0 0)" id="ukwHdQpYyC2AO-py4gMLu"  >
<path style="stroke: none; stroke-width: 1; stroke-dasharray: none; stroke-linecap: butt; stroke-dashoffset: 0; stroke-linejoin: miter; stroke-miterlimit: 4; fill: rgb(179,181,179); fill-rule: nonzero; opacity: 1;" vector-effect="non-scaling-stroke"  transform=" translate(-40, -40)" d="M 77.4 56.5 C 81 63.1 79.80000000000001 71.4 79.80000000000001 71.4 L 70.9 59.7 L 61.800000000000004 61.800000000000004 L 59.7 70.9 L 71.4 79.80000000000001 C 71.4 79.80000000000001 63.10000000000001 81.00000000000001 56.50000000000001 77.4 C 49.10000000000001 73.4 53.10000000000001 66.80000000000001 51.10000000000001 63.2 C 32.70000000000001 37.2 16.80000000000001 28.900000000000006 16.80000000000001 28.900000000000006 C 16.80000000000001 28.900000000000006 6.600000000000012 30.900000000000006 2.600000000000012 23.500000000000007 C -1 16.9 0.2 8.6 0.2 8.6 L 9.1 20.299999999999997 L 18.2 18.199999999999996 L 20.3 9.099999999999996 L 8.6 0.2 C 8.6 0.2 16.9 -1 23.5 2.6 C 30.9 6.6 28.9 16.8 28.9 16.8 C 28.9 16.8 37.599999999999994 33.5 63.199999999999996 51.099999999999994 C 66.6 53.5 73.4 49.1 77.4 56.5 z" stroke-linecap="round" />
</g>
</g>
</g>
</svg>